HIERARCHY
ROOT Root
{
  OFFSET 0.0 0.0 0.0
  CHANNELS 6 Xposition Yposition Zposition Zrotation Yrotation Xrotation
  JOINT Hips
  {
    OFFSET 0.0 100.0 0.0
    CHANNELS 6 Xposition Yposition Zposition Zrotation Yrotation Xrotation
    JOINT Spine1
    {
      OFFSET 5.003913 -0.037094 -0.013727
      CHANNELS 3 Zrotation Yrotation Xrotation
      JOINT Spine2
      {
        OFFSET 7.125363 -1e-06 0.0
        CHANNELS 3 Zrotation Yrotation Xrotation
        JOINT Chest
        {
          OFFSET 7.594027 1e-06 0.0
          CHANNELS 3 Zrotation Yrotation Xrotation
          JOINT Neck1
          {
            OFFSET 26.313086 -0.460272 -0.181672
            CHANNELS 3 Zrotation Yrotation Xrotation
            JOINT Neck2
            {
              OFFSET 8.045911 0.0 0.0
              CHANNELS 3 Zrotation Yrotation Xrotation
              JOINT Head
              {
                OFFSET 6.432774 0.0 0.0
                CHANNELS 3 Zrotation Yrotation Xrotation
                JOINT HeadEnd
                {
                  OFFSET 16.169773 0.06451 0.00362
                  CHANNELS 3 Zrotation Yrotation Xrotation
                }
                JOINT Jaw
                {
                  OFFSET 0.108741 3.12938 0.002639
                  CHANNELS 3 Zrotation Yrotation Xrotation
                }
                JOINT LeftEye
                {
                  OFFSET 4.45173 8.166359 3.206392
                  CHANNELS 3 Zrotation Yrotation Xrotation
                }
                JOINT RightEye
                {
                  OFFSET 4.436895 8.135758 -3.222429
                  CHANNELS 3 Zrotation Yrotation Xrotation
                }
              }
            }
          }
          JOINT LeftShoulder
          {
            OFFSET 23.218927 5.195579 1.621656
            CHANNELS 3 Zrotation Yrotation Xrotation
            JOINT LeftArm
            {
              OFFSET 15.902118 2e-06 -2e-06
              CHANNELS 3 Zrotation Yrotation Xrotation
              JOINT LeftForeArm
              {
                OFFSET 28.739307 0.0 -1e-06
                CHANNELS 3 Zrotation Yrotation Xrotation
                JOINT LeftHand
                {
                  OFFSET 27.093981 -4e-06 0.0
                  CHANNELS 3 Zrotation Yrotation Xrotation
                  JOINT LeftHandThumb1
                  {
                    OFFSET 2.276781 3.380274 0.83384
                    CHANNELS 3 Zrotation Yrotation Xrotation
                    JOINT LeftHandThumb2
                    {
                      OFFSET 4.705309 -1e-06 -1e-06
                      CHANNELS 3 Zrotation Yrotation Xrotation
                      JOINT LeftHandThumb3
                      {
                        OFFSET 2.798515 0.0 3e-06
                        CHANNELS 3 Zrotation Yrotation Xrotation
                        JOINT LeftHandThumbEnd
                        {
                          OFFSET 3.180793 4e-06 -4e-06
                          CHANNELS 3 Zrotation Yrotation Xrotation
                        }
                      }
                    }
                  }
                  JOINT LeftHandIndex1
                  {
                    OFFSET 3.247786 2.352677 0.137192
                    CHANNELS 3 Zrotation Yrotation Xrotation
                    JOINT LeftHandIndex2
                    {
                      OFFSET 6.367095 1e-06 0.0
                      CHANNELS 3 Zrotation Yrotation Xrotation
                      JOINT LeftHandIndex3
                      {
                        OFFSET 3.662364 0.0 0.0
                        CHANNELS 3 Zrotation Yrotation Xrotation
                        JOINT LeftHandIndex4
                        {
                          OFFSET 2.329242 4e-06 -4e-06
                          CHANNELS 3 Zrotation Yrotation Xrotation
                          JOINT LeftHandIndexEnd
                          {
                            OFFSET 2.767823 1e-06 0.0
                            CHANNELS 3 Zrotation Yrotation Xrotation
                          }
                        }
                      }
                    }
                  }
                  JOINT LeftHandMiddle1
                  {
                    OFFSET 3.163612 0.945023 -0.406112
                    CHANNELS 3 Zrotation Yrotation Xrotation
                    JOINT LeftHandMiddle2
                    {
                      OFFSET 6.276789 3e-06 0.0
                      CHANNELS 3 Zrotation Yrotation Xrotation
                      JOINT LeftHandMiddle3
                      {
                        OFFSET 4.35652 -1e-06 4e-06
                        CHANNELS 3 Zrotation Yrotation Xrotation
                        JOINT LeftHandMiddle4
                        {
                          OFFSET 2.996877 0.0 8e-06
                          CHANNELS 3 Zrotation Yrotation Xrotation
                          JOINT LeftHandMiddleEnd
                          {
                            OFFSET 2.323256 3e-06 -4e-06
                            CHANNELS 3 Zrotation Yrotation Xrotation
                          }
                        }
                      }
                    }
                  }
                  JOINT LeftHandRing1
                  {
                    OFFSET 2.882606 -0.309162 0.107445
                    CHANNELS 3 Zrotation Yrotation Xrotation
                    JOINT LeftHandRing2
                    {
                      OFFSET 6.033198 0.0 4e-06
                      CHANNELS 3 Zrotation Yrotation Xrotation
                      JOINT LeftHandRing3
                      {
                        OFFSET 4.350578 3e-06 0.0
                        CHANNELS 3 Zrotation Yrotation Xrotation
                        JOINT LeftHandRing4
                        {
                          OFFSET 2.651321 2e-06 -7e-06
                          CHANNELS 3 Zrotation Yrotation Xrotation
                          JOINT LeftHandRingEnd
                          {
                            OFFSET 1.937663 1e-06 -4e-06
                            CHANNELS 3 Zrotation Yrotation Xrotation
                          }
                        }
                      }
                    }
                  }
                  JOINT LeftHandPinky1
                  {
                    OFFSET 2.865315 -1.525436 0.575687
                    CHANNELS 3 Zrotation Yrotation Xrotation
                    JOINT LeftHandPinky2
                    {
                      OFFSET 5.54936 1e-06 -8e-06
                      CHANNELS 3 Zrotation Yrotation Xrotation
                      JOINT LeftHandPinky3
                      {
                        OFFSET 3.070974 0.0 -4e-06
                        CHANNELS 3 Zrotation Yrotation Xrotation
                        JOINT LeftHandPinky4
                        {
                          OFFSET 1.549672 1e-06 0.0
                          CHANNELS 3 Zrotation Yrotation Xrotation
                          JOINT LeftHandPinkyEnd
                          {
                            OFFSET 1.952123 0.0 0.0
                            CHANNELS 3 Zrotation Yrotation Xrotation
                          }
                        }
                      }
                    }
                  }
                }
              }
            }
          }
          JOINT RightShoulder
          {
            OFFSET 23.161716 5.296122 -1.380114
            CHANNELS 3 Zrotation Yrotation Xrotation
            JOINT RightArm
            {
              OFFSET -16.027195 -2e-06 1.1e-05
              CHANNELS 3 Zrotation Yrotation Xrotation
              JOINT RightForeArm
              {
                OFFSET -28.736639 4e-06 2e-06
                CHANNELS 3 Zrotation Yrotation Xrotation
                JOINT RightHand
                {
                  OFFSET -27.133619 6e-06 0.0
                  CHANNELS 3 Zrotation Yrotation Xrotation
                  JOINT RightHandThumb1
                  {
                    OFFSET -2.274328 -3.351035 -0.83067
                    CHANNELS 3 Zrotation Yrotation Xrotation
                    JOINT RightHandThumb2
                    {
                      OFFSET -4.703594 -3e-06 2e-06
                      CHANNELS 3 Zrotation Yrotation Xrotation
                      JOINT RightHandThumb3
                      {
                        OFFSET -2.794935 -4e-06 -3e-06
                        CHANNELS 3 Zrotation Yrotation Xrotation
                        JOINT RightHandThumbEnd
                        {
                          OFFSET -3.183852 4e-06 1e-06
                          CHANNELS 3 Zrotation Yrotation Xrotation
                        }
                      }
                    }
                  }
                  JOINT RightHandIndex1
                  {
                    OFFSET -3.253496 -2.33755 -0.127667
                    CHANNELS 3 Zrotation Yrotation Xrotation
                    JOINT RightHandIndex2
                    {
                      OFFSET -6.344434 0.0 0.0
                      CHANNELS 3 Zrotation Yrotation Xrotation
                      JOINT RightHandIndex3
                      {
                        OFFSET -3.654871 0.0 -8e-06
                        CHANNELS 3 Zrotation Yrotation Xrotation
                        JOINT RightHandIndex4
                        {
                          OFFSET -2.327586 -1e-06 0.0
                          CHANNELS 3 Zrotation Yrotation Xrotation
                          JOINT RightHandIndexEnd
                          {
                            OFFSET -2.770001 3e-06 8e-06
                            CHANNELS 3 Zrotation Yrotation Xrotation
                          }
                        }
                      }
                    }
                  }
                  JOINT RightHandMiddle1
                  {
                    OFFSET -3.168223 -0.944764 0.411762
                    CHANNELS 3 Zrotation Yrotation Xrotation
                    JOINT RightHandMiddle2
                    {
                      OFFSET -6.266691 -1e-06 -4e-06
                      CHANNELS 3 Zrotation Yrotation Xrotation
                      JOINT RightHandMiddle3
                      {
                        OFFSET -4.348901 0.0 0.0
                        CHANNELS 3 Zrotation Yrotation Xrotation
                        JOINT RightHandMiddle4
                        {
                          OFFSET -3.00024 2e-06 -4e-06
                          CHANNELS 3 Zrotation Yrotation Xrotation
                          JOINT RightHandMiddleEnd
                          {
                            OFFSET -2.321477 -4e-06 -4e-06
                            CHANNELS 3 Zrotation Yrotation Xrotation
                          }
                        }
                      }
                    }
                  }
                  JOINT RightHandRing1
                  {
                    OFFSET -2.885654 0.293261 -0.119232
                    CHANNELS 3 Zrotation Yrotation Xrotation
                    JOINT RightHandRing2
                    {
                      OFFSET -6.032835 -1e-06 -4e-06
                      CHANNELS 3 Zrotation Yrotation Xrotation
                      JOINT RightHandRing3
                      {
                        OFFSET -4.33881 0.0 -4e-06
                        CHANNELS 3 Zrotation Yrotation Xrotation
                        JOINT RightHandRing4
                        {
                          OFFSET -2.654903 -4e-06 -4e-06
                          CHANNELS 3 Zrotation Yrotation Xrotation
                          JOINT RightHandRingEnd
                          {
                            OFFSET -1.935122 0.0 4e-06
                            CHANNELS 3 Zrotation Yrotation Xrotation
                          }
                        }
                      }
                    }
                  }
                  JOINT RightHandPinky1
                  {
                    OFFSET -2.866241 1.503904 -0.60527
                    CHANNELS 3 Zrotation Yrotation Xrotation
                    JOINT RightHandPinky2
                    {
                      OFFSET -5.553177 -2e-06 0.0
                      CHANNELS 3 Zrotation Yrotation Xrotation
                      JOINT RightHandPinky3
                      {
                        OFFSET -3.062664 -1e-06 -4e-06
                        CHANNELS 3 Zrotation Yrotation Xrotation
                        JOINT RightHandPinky4
                        {
                          OFFSET -1.546529 2e-06 4e-06
                          CHANNELS 3 Zrotation Yrotation Xrotation
                          JOINT RightHandPinkyEnd
                          {
                            OFFSET -1.952341 0.0 -4e-06
                            CHANNELS 3 Zrotation Yrotation Xrotation
                          }
                        }
                      }
                    }
                  }
                }
              }
            }
          }
        }
      }
    }
    JOINT LeftLeg
    {
      OFFSET -8.443107 2.567604 10.043214
      CHANNELS 3 Zrotation Yrotation Xrotation
      JOINT LeftShin
      {
        OFFSET 43.229198 1e-06 -1e-06
        CHANNELS 3 Zrotation Yrotation Xrotation
        JOINT LeftFoot
        {
          OFFSET 42.298611 1e-06 1e-06
          CHANNELS 3 Zrotation Yrotation Xrotation
          JOINT LeftToeBase
          {
            OFFSET 14.165858 1e-06 0.0
            CHANNELS 3 Zrotation Yrotation Xrotation
            JOINT LeftToeEnd
            {
              OFFSET 6.7141 -0.234461 0.0
              CHANNELS 3 Zrotation Yrotation Xrotation
            }
          }
        }
      }
    }
    JOINT RightLeg
    {
      OFFSET -8.303923 2.592729 -10.047278
      CHANNELS 3 Zrotation Yrotation Xrotation
      JOINT RightShin
      {
        OFFSET -43.369682 0.0 1e-06
        CHANNELS 3 Zrotation Yrotation Xrotation
        JOINT RightFoot
        {
          OFFSET -42.260784 4e-06 2e-06
          CHANNELS 3 Zrotation Yrotation Xrotation
          JOINT RightToeBase
          {
            OFFSET -14.222245 -2e-06 -1e-06
            CHANNELS 3 Zrotation Yrotation Xrotation
            JOINT RightToeEnd
            {
              OFFSET -6.660062 0.232574 -2e-06
              CHANNELS 3 Zrotation Yrotation Xrotation
            }
          }
        }
      }
    }
  }
}
MOTION
Frames: 4
Frame Time: 0.03333333333333333
0.0 0.0 0.0 0.0 -0.0 0.0 10.03675 47.451702 243.461792 88.927681 -54.937771 90.301453 11.341683 -4.066657 -1.06144 -4.683039 -1.945883 -0.636617 24.828163 -4.301294 -4.589607 5.874012 2.736614 1.875307 -2.678063 -0.131582 0.039035 -42.470436 0.631397 -1.169357 6e-06 0.0 -0.0 -0.119362 -0.003165 -0.040577 0.264917 -0.094746 0.024803 0.326969 0.082994 -0.106381 -40.242722 -80.675613 51.13213 72.518074 -27.697126 -32.851131 29.194216 -1.797093 0.135088 80.191971 66.039635 89.396126 17.636625 -26.322733 52.411201 -19.466665 -14.395602 29.410393 -1e-06 -8.774821 -0.0 16.580675 -18.52891 5.966204 -0.609776 -1.795654 -3.889328 -4.807087 -11.046813 -2.937852 5e-06 -20.976019 -1e-06 -5.01997 -25.03356 -4.031881 6e-06 0.0 -1e-06 -10.634535 -5.686969 -3.565587 10.573277 -17.922955 -3.113904 3e-06 -13.82121 0.0 -0.501777 -31.181507 -4.027017 -11.353374 -60.550755 8.234356 -13.982717 -7.150198 -2.875042 13.772731 -8.40149 -3.218243 0.347734 -34.211555 0.771654 -0.963029 -17.73337 2.621019 0.0 0.0 -0.0 -17.34642 -20.095221 -4.20178 21.757561 -1.638375 3.866426 1e-06 -6.338825 0.0 -1.697587 -22.591745 -6.194007 -0.0 -4e-06 -1e-06 156.053848 -78.442856 31.157213 94.185219 7.707884 -33.174564 16.363747 -0.827762 -0.016875 16.385788 64.781647 21.880007 22.182106 -20.375891 49.933311 -16.701818 -16.74353 28.476536 -3e-06 -12.690601 1e-06 16.727945 -17.558701 2.545822 -0.105919 -1.513857 -4.275881 -5.03904 -5.612871 -2.953557 4e-06 -11.020527 -2e-06 -6.111297 -15.895334 -3.840471 -1e-06 -1e-06 1e-06 -10.283369 -5.680289 -4.341837 11.028296 -11.302407 -2.372635 -1.384267 -14.238579 -6.320121 -0.625438 -26.924192 -3.827601 -3.902954 -50.1614 -4.435354 -13.708524 -7.363477 -3.720938 18.141151 -14.052739 -3.242678 7e-06 -18.787271 -3e-06 -0.429711 -8.456041 2.555503 -0.0 0.0 -1e-06 -15.923532 -20.094484 -5.473584 30.41921 -7.190825 1.735922 3e-06 -8.162925 -1e-06 -1.861901 -22.861473 -6.167943 -1e-06 -2e-06 -1e-06 106.640717 -7.603244 5.144783 125.720169 0.525277 0.724685 -66.674255 27.850136 0.582102 -14.928094 1.028871 1.797634 -0.999999 0.0 -0.0 -24.158396 -5.428946 4.261517 70.852806 -3.413521 0.407243 -59.759674 1.515174 -2.708656 -11.108789 0.777004 1.536029 -1.000001 0.0 0.0 
0.0 0.0 0.0 0.0 -0.0 0.0 10.672197 47.69648 245.618362 89.788116 -55.830029 89.605347 11.271648 -3.921888 -1.133756 -4.741018 -1.890058 -0.656087 24.549894 -3.945189 -4.697896 5.328025 3.019918 1.94173 -2.681949 -0.216095 0.248401 -42.922062 0.655688 -0.986438 7e-06 -0.0 0.0 -0.117658 0.015789 -0.040078 0.319882 -0.082087 0.036888 0.382461 0.1109 -0.12067 -40.188087 -80.937981 51.143517 70.150307 -28.985838 -31.497936 32.868538 -1.756129 0.225292 76.830154 64.518387 89.062927 17.636625 -26.322741 52.411201 -19.466661 -14.395598 29.410393 1e-06 -8.774821 -2e-06 16.505287 -18.5986 5.837566 -0.609777 -1.795655 -3.889328 -4.807088 -11.046811 -2.93785 4e-06 -20.976019 -0.0 -5.019971 -25.033558 -4.031879 6e-06 -0.0 -0.0 -10.634533 -5.686968 -3.565588 10.573275 -17.922953 -3.1139 3e-06 -13.821208 2e-06 -0.501779 -31.181505 -4.027014 -11.742948 -60.634491 8.163149 -13.982712 -7.150198 -2.875041 13.772728 -8.401493 -3.218243 0.347732 -34.211552 0.771658 -0.963029 -17.73337 2.621019 0.0 -0.0 -0.0 -17.346416 -20.095215 -4.201779 21.757555 -1.638375 3.866426 0.0 -6.338826 1e-06 -1.69759 -22.591743 -6.194006 1e-06 -2e-06 -2e-06 154.451065 -78.039192 32.584721 95.266151 6.788837 -31.898912 15.948337 -0.955169 -0.002009 18.616089 66.919121 24.356436 22.182114 -20.375895 49.933319 -16.70182 -16.743525 28.476534 -1e-06 -12.6906 0.0 16.380524 -17.684668 2.825202 -0.10592 -1.513855 -4.275881 -5.039041 -5.612874 -2.953557 4e-06 -11.020523 -2e-06 -6.111298 -15.89533 -3.84047 0.0 -1e-06 -1e-06 -10.283371 -5.680288 -4.341838 11.028294 -11.302407 -2.372633 -1.384268 -14.238581 -6.320121 -0.625439 -26.924192 -3.827603 -3.97892 -50.060375 -4.386343 -13.708524 -7.363479 -3.720939 18.14115 -14.052739 -3.242675 5e-06 -18.787271 -3e-06 -0.429712 -8.456041 2.555503 0.0 -1e-06 0.0 -15.923534 -20.094482 -5.473586 30.41921 -7.190825 1.735925 3e-06 -8.162927 -2e-06 -1.861901 -22.861469 -6.167942 -1e-06 -2e-06 -1e-06 108.520645 -6.564308 4.262525 122.995628 0.558866 0.715267 -66.827621 29.548964 0.582546 -15.372377 1.066257 1.696395 -0.999998 -0.0 -1e-06 -24.312208 -6.832122 3.09066 69.027664 -3.903281 0.699113 -58.632652 0.309204 -3.433194 -10.661472 0.773996 1.579611 -1.000003 1e-06 -0.0 
0.0 0.0 0.0 0.0 -0.0 0.0 11.324716 48.144539 247.696259 89.976974 -56.468407 88.627106 11.325423 -3.541004 -1.115829 -4.7641 -1.856267 -0.481108 24.383396 -3.388263 -4.219748 4.698982 2.610313 1.891581 -2.737584 0.068622 0.74243 -43.362011 0.712429 -0.583615 8e-06 -0.0 -0.0 -0.124052 0.052536 -0.078928 0.393499 -0.050305 0.028014 0.475204 0.155953 -0.191572 -42.590664 -80.803322 53.770466 67.104904 -29.979429 -30.7171 38.762039 -1.611556 0.263635 72.224121 61.585823 87.938934 17.636641 -26.322729 52.411186 -19.466663 -14.395597 29.410389 1e-06 -8.774822 -2e-06 16.716181 -18.59074 5.765071 -0.609777 -1.795655 -3.889328 -4.807088 -11.046811 -2.93785 4e-06 -20.976019 1e-06 -5.019972 -25.033562 -4.031883 6e-06 -0.0 1e-06 -10.634535 -5.686971 -3.565587 10.573275 -17.922955 -3.1139 3e-06 -13.82121 -0.0 -0.501777 -31.181511 -4.027017 -11.907869 -60.926525 8.170625 -13.982715 -7.150199 -2.875042 13.77273 -8.401492 -3.21824 0.347733 -34.211559 0.771655 -0.963028 -17.733372 2.62102 0.0 0.0 -0.0 -17.34642 -20.095219 -4.201782 21.757557 -1.638374 3.866429 1e-06 -6.338826 0.0 -1.697589 -22.591751 -6.194006 -0.0 -4e-06 0.0 155.965439 -77.768982 30.912073 95.819717 6.167724 -30.55158 15.431178 -1.088809 0.008046 22.087597 68.675316 28.653791 22.182117 -20.375898 49.933327 -16.701817 -16.74353 28.476532 -3e-06 -12.690603 0.0 16.078804 -17.718832 3.032689 -0.105919 -1.513856 -4.275881 -5.039041 -5.612873 -2.953558 5e-06 -11.020523 -2e-06 -6.111297 -15.89533 -3.84047 -1e-06 -1e-06 -1e-06 -10.283371 -5.680288 -4.341838 11.028296 -11.302406 -2.372633 -1.384268 -14.238579 -6.320121 -0.625437 -26.924189 -3.827599 -4.035182 -49.955631 -4.342514 -13.708525 -7.363475 -3.720939 18.14115 -14.052739 -3.242675 7e-06 -18.787273 -2e-06 -0.429712 -8.456043 2.555504 1e-06 1e-06 -0.0 -15.923536 -20.094482 -5.473585 30.419218 -7.190829 1.735924 3e-06 -8.162926 -1e-06 -1.861901 -22.861469 -6.167941 -1e-06 -2e-06 -1e-06 110.834755 -6.342402 2.914668 120.176773 0.485063 0.694686 -66.652145 29.830647 0.326963 -15.84409 1.10232 1.603233 -0.999999 -1e-06 1e-06 -25.519434 -7.438234 2.322449 69.135361 -4.307608 0.9597 -58.094242 -0.777194 -3.968125 -9.303676 0.74581 1.641807 -1.000004 0.0 -0.0 
0.0 0.0 0.0 0.0 -0.0 0.0 11.963737 48.568771 249.603653 89.909515 -56.92318 87.469635 11.493448 -3.153976 -1.132643 -4.679992 -1.738712 -0.234076 24.263075 -2.850213 -3.550865 4.074973 1.938888 1.83758 -2.764597 0.363682 1.487448 -43.719685 0.881477 -0.054671 7e-06 -0.0 -0.0 -0.127908 0.082818 -0.112641 0.47163 -0.018014 0.031127 0.586743 0.186742 -0.264178 -45.791752 -80.172745 57.179703 63.435471 -30.614506 -31.129707 46.55917 -1.412175 0.28052 67.626274 58.005676 86.605225 17.63662 -26.322733 52.411205 -19.466665 -14.3956 29.410393 0.0 -8.774821 -1e-06 16.994331 -18.536882 5.86651 -0.609776 -1.795655 -3.889328 -4.807087 -11.046809 -2.93785 4e-06 -20.976019 -0.0 -5.019969 -25.03356 -4.031879 6e-06 0.0 0.0 -10.634531 -5.686972 -3.565587 10.573274 -17.922951 -3.113903 4e-06 -13.82121 0.0 -0.501775 -31.181505 -4.027017 -12.147938 -61.335518 8.475977 -13.982712 -7.150196 -2.875041 13.77273 -8.401495 -3.218244 0.347734 -34.211555 0.771654 -0.963028 -17.733372 2.621019 0.0 0.0 0.0 -17.346415 -20.095217 -4.201782 21.757555 -1.638377 3.866426 1e-06 -6.338824 1e-06 -1.697588 -22.591742 -6.194006 0.0 -5e-06 -2e-06 158.783691 -77.722664 27.887148 96.125847 5.793758 -28.693377 14.869086 -1.207094 -0.02578 25.808187 69.947525 33.547619 22.182108 -20.375895 49.933319 -16.701811 -16.743528 28.47653 -3e-06 -12.690598 1e-06 15.953188 -17.692993 3.139845 -0.105919 -1.513857 -4.275882 -5.03904 -5.61287 -2.953556 4e-06 -11.020523 -2e-06 -6.111296 -15.895328 -3.840471 -0.0 -1e-06 -1e-06 -10.283369 -5.680288 -4.341838 11.028293 -11.302402 -2.372632 -1.384268 -14.238577 -6.320121 -0.625439 -26.924187 -3.827601 -4.037905 -49.845047 -4.360486 -13.708523 -7.363475 -3.720939 18.141146 -14.052736 -3.242676 5e-06 -18.78727 -1e-06 -0.429712 -8.456039 2.555504 -0.0 0.0 -0.0 -15.923532 -20.094482 -5.473584 30.419205 -7.190823 1.735923 1e-06 -8.162922 0.0 -1.861902 -22.861464 -6.16794 -1e-06 -2e-06 -1e-06 113.072685 -6.51223 1.703815 117.473206 0.386223 0.653198 -66.080559 30.278189 0.009883 -16.256575 1.121653 1.529427 -0.999999 -1e-06 0.0 -27.846088 -7.687597 1.984235 71.880394 -4.513875 1.047653 -58.67886 -1.781158 -4.21509 -7.646632 0.697765 1.708862 -1.000003 0.0 0.0 
